# xmcd CD database file
#
# Track frame offsets:
#	150
#	14009
#	48077
#	79650
#	110558
#	127735
#	141490
#	178093
#
# Disc length: 2684 seconds
#
# Revision: 0
# Processed by: cddbd v1.5.2PL0 Copyright (c) Steve Scherf et al.
# Submitted via: CDex 1.51
#
DISCID=670a7a08
DTITLE=Ecstasy Project - Ecstasy Project
DYEAR=2001
DGENRE=Jazz
TTITLE0=Sonda - Plummet (Gorzycki)
TTITLE1=Chrystus - Christ (Hesse)
TTITLE2=Florencja - Florence (Majewski)
TTITLE3=Pies Dingo - Dingo Dog (Hesse, Gorzycki)
TTITLE4=Ocean (Gorzycki, Górewicz)
TTITLE5=A Tribute to Roman Wilhelmi (Dutkiewicz, Majewski, Hesse - text - Piotr Kaliski)
TTITLE6=Reumatyzm Bergeraca - Bergerac's Rheumatism (Hesse, Gorzycki, Majewski)
TTITLE7=Look (Górewicz)
EXTD=YEAR: 2001
EXTT0=
EXTT1=
EXTT2=
EXTT3=
EXTT4=
EXTT5=
EXTT6=
EXTT7=
PLAYORDER=
